<?xml version="1.0" encoding="UTF-8" standalone="no"?>
<!DOCTYPE svg PUBLIC "-//W3C//DTD SVG 1.1//EN"
"http://www.w3.org/Graphics/SVG/1.1/DTD/svg11.dtd">
<svg viewBox="0 0 909 1286" version="1.1" xmlns="http://www.w3.org/2000/svg" xmlns:xlink="http://www.w3.org/1999/xlink">
<defs>
<clipPath id="c0"><path d="M0,1286.2V0H909.4V1286.2Z"/></clipPath>
<style type="text/css"><![CDATA[
.g0{
fill: #97331E;
}
.g1{
fill: #3D632E;
}
]]></style>
<path d="M207,-9c0,0,-24,0,-37,21c0,0,-13,23,-13,54c0,0,0,35,6,123c0,0,6,87,6,121c0,0,0,73,-10,238c0,0,-11,165,-11,238l2,58c0,0,1,31,1,76c0,0,0,111,-14,142l-40,-4c0,0,-31,-4,-43,-4c0,0,-20,0,-35,12c0,0,-15,12,-15,30c0,0,0,18,36,31c0,0,55,20,181,27c0,0,39,2,63,2c0,0,20,0,35,-12c0,0,14,-13,14,-31c0,0,0,-18,-13,-29c0,0,-13,-11,-33,-11l-27,1l-27,2c0,0,-12,0,-16,-1c0,0,11,-92,11,-188l-2,-98l-1,-99c0,0,0,-60,6,-175c0,0,7,-115,7,-176c0,0,0,-47,7,-138c0,0,6,-97,6,-137c0,0,0,-73,-44,-73Z"
id="f0_50"
transform="scale(0.001,-0.001)"/>

<path d="M295,41c0,0,30,0,52,57c0,0,19,51,27,126c0,0,9,75,15,162c0,0,3,53,3,101c0,0,0,69,-3,141c0,0,-3,81,-18,206c0,0,-12,102,-45,187c0,0,-16,39,-38,60c0,0,-23,21,-50,21c0,0,-36,0,-57,-60c0,0,-23,-68,-30,-137c0,0,-9,-92,-11,-155V722c0,0,-2,-72,-2,-80v-6c0,0,0,-102,20,-252c0,0,13,-98,30,-169c0,0,16,-72,43,-121c0,0,29,-53,64,-53Zm-3,-83c0,0,-41,0,-75,28c0,0,-35,27,-58,73c0,0,-22,42,-39,104c0,0,-17,61,-27,122c0,0,-9,54,-14,117c0,0,-6,64,-8,113c0,0,-2,57,-2,81c0,0,0,42,0,82l-2,96c0,0,0,91,8,163c0,0,7,81,31,144c0,0,13,33,29,54c0,0,16,21,41,35c0,0,25,12,55,12c0,0,39,0,72,-16c0,0,33,-16,56,-48c0,0,24,-34,42,-72c0,0,17,-38,27,-87c0,0,12,-59,19,-105c0,0,7,-45,9,-101c0,0,5,-113,5,-204V461c0,0,0,-34,-7,-98c0,0,-6,-63,-6,-95v-7c0,0,-10,-41,-10,-101c0,0,0,-42,-18,-88c0,0,-18,-45,-51,-78c0,0,-35,-36,-77,-36Z"
id="f0_3k"
transform="scale(0.001,-0.001)"/>

<path d="M531,-39c0,0,-15,0,-24,16c0,0,-9,16,-9,43c0,0,0,131,-3,322c0,0,-3,191,-3,321v78c0,0,-11,-60,-47,-206c0,0,-37,-148,-47,-226V299l-5,-28c0,0,-3,-23,-6,-37c0,0,-4,-15,-10,-32c0,0,-14,-36,-47,-36c0,0,-55,0,-55,142c0,0,0,79,-16,170c0,0,-16,91,-52,225c0,0,-35,130,-44,171c0,0,-3,-108,-3,-184c0,0,0,-104,6,-314c0,0,6,-223,6,-314c0,0,0,-34,-23,-58c0,0,-37,0,-52,24C97,28,82,52,82,98c0,0,0,33,4,125c0,0,4,91,4,123c0,0,0,99,-3,296c0,0,-3,176,-3,296c0,0,0,99,3,197l42,24c0,0,22,0,51,-68c0,0,41,-101,99,-379c0,0,22,-103,40,-200c0,0,19,-105,22,-118c0,0,6,30,22,101c0,0,5,21,9,40c0,0,4,19,8,35c0,0,30,138,44,205c0,0,13,67,29,166c0,0,15,100,21,191v9c0,0,3,19,18,31c0,0,15,12,36,12c0,0,14,0,25,-12c0,0,11,-13,11,-27c0,0,0,-192,14,-547c0,0,14,-365,14,-548c0,0,0,-23,-9,-44c0,0,-9,-20,-24,-33c0,0,-14,-12,-28,-12Z"
id="f0_37"
transform="scale(0.001,-0.001)"/>

<path d="M314,329c0,0,13,0,31,4c0,0,-2,33,-15,167c0,0,-35,353,-35,422c0,0,0,11,0,13c0,0,-15,-14,-41,-138c0,0,-27,-123,-50,-264c0,0,-23,-141,-26,-187c0,0,65,-17,136,-17ZM394,1c0,0,-25,0,-36,9c0,0,-11,9,-11,30V239c0,0,-20,15,-74,25c0,0,-54,11,-104,14c0,0,-15,-25,-26,-77l-4,-23c0,0,-12,-62,-22,-100C117,78,107,40,93,17c0,0,-59,0,-67,31c0,0,15,20,38,143c0,0,20,105,50,280c0,0,34,203,63,341c0,0,28,138,59,233c0,0,35,106,68,106c0,0,32,0,49,-13c0,0,0,-57,30,-295c0,0,30,-238,30,-313c0,0,0,-72,16,-232c0,0,16,-164,16,-246c0,0,0,-51,-51,-51Z"
id="f0_5"
transform="scale(0.001,-0.001)"/>

<path d="M210,-23c0,0,-21,0,-36,17c0,0,-16,16,-16,37c0,0,0,23,17,41c0,0,17,18,41,18c0,0,21,0,38,-18c0,0,16,-18,16,-40c0,0,0,-25,-17,-39c0,0,-17,-16,-43,-16Z"
id="f0_fb"
transform="scale(0.001,-0.001)"/>

<path d="M141,-7L112,18c0,0,0,33,16,82l12,36c0,0,59,227,95,484c0,0,37,257,42,494c0,0,-21,3,-36,3c0,0,-16,0,-87,-8l-62,-6c0,0,-15,8,-26,20c0,0,-10,12,-10,25c0,0,0,14,45,23c0,0,46,9,147,9h29c0,0,24,0,36,-2c0,0,12,-3,23,-12c0,0,12,-10,18,-30c0,0,-27,-134,-65,-532c0,0,-14,-151,-38,-294c0,0,-24,-143,-51,-221c0,0,1,-2,1,-14c0,0,0,-30,-17,-57c0,0,-18,-25,-43,-25Z"
id="f0_eq"
transform="scale(0.001,-0.001)"/>

<path d="M266,75c0,0,23,0,40,45c0,0,26,68,36,225c0,0,3,45,3,79c0,0,0,108,-9,271c0,0,-9,152,-47,290c0,0,-17,65,-46,103c0,0,-28,39,-63,44c0,0,-24,-19,-32,-38c0,0,-8,-20,-8,-53c0,0,0,-62,3,-151c0,0,3,-90,3,-151c0,0,0,-24,8,-75c0,0,8,-47,8,-75c0,0,0,-47,5,-167c0,0,5,-119,28,-230c0,0,11,-55,30,-86c0,0,19,-31,41,-31ZM252,5C252,5,67,5,67,864v48c0,0,0,57,6,100c0,0,6,43,20,79c0,0,13,37,39,56c0,0,27,19,65,19c0,0,219,0,219,-777C416,389,416,5,252,5Z"
id="f0_ej"
transform="scale(0.001,-0.001)"/>

<path d="M134,-39c0,0,-7,0,-12,9c0,0,-6,9,-6,24c0,0,0,12,5,28c0,0,7,26,133,532c0,0,124,505,155,605c0,0,4,10,15,10c0,0,11,0,19,-10c0,0,8,-9,8,-25l-1,-13c0,0,-22,-111,-84,-367c0,0,-62,-256,-125,-485c0,0,-63,-229,-92,-291c0,0,-4,-17,-15,-17Z"
id="f0_fh"
transform="scale(0.001,-0.001)"/>

<path d="M172,489c0,0,-20,0,-35,13c0,0,-15,13,-15,31c0,0,0,19,37,32c0,0,54,21,180,28c0,0,38,2,62,2c0,0,20,0,36,-12c0,0,15,-13,15,-32c0,0,0,-18,-36,-32c0,0,-52,-20,-180,-27c0,0,-38,-3,-64,-3Z"
id="f0_ft"
transform="scale(0.001,-0.001)"/>

<path d="M178,-33c0,0,-55,0,-94,21C84,-12,60,0,60,18c0,0,0,18,9,29c0,0,9,12,25,12c0,0,18,0,46,-11c0,0,26,-12,38,-12c0,0,29,0,53,25c0,0,24,26,38,66c0,0,14,37,21,74c0,0,7,36,7,64c0,0,0,65,-21,137c0,0,-21,72,-56,142l-22,42c0,0,-36,71,-58,120c0,0,-23,49,-39,103c0,0,-23,74,-23,142c0,0,0,55,19,104c0,0,19,49,57,83c0,0,39,36,94,36c0,0,28,0,54,-15c0,0,26,-16,37,-40l-26,-33c0,0,-38,0,-60,15c0,0,-27,-3,-48,-26c0,0,-21,-23,-30,-54c0,0,-9,-30,-9,-59c0,0,0,-59,15,-119c0,0,16,-61,42,-113l11,-22c0,0,72,-141,96,-192c0,0,26,-54,41,-123c0,0,16,-69,16,-138c0,0,0,-48,-13,-97c0,0,-13,-49,-37,-92c0,0,-25,-46,-67,-72c0,0,-42,-27,-92,-27Z"
id="f0_4r"
transform="scale(0.001,-0.001)"/>

<path d="M244,-21c0,0,-56,0,-56,116c0,0,0,45,-31,287c0,0,-32,241,-66,472c0,0,-35,231,-46,258c0,0,18,37,53,37c0,0,36,0,65,-159c0,0,28,-159,50,-385l2,-25c0,0,18,-203,18,-205l16,129c0,0,11,96,20,171c0,0,9,76,15,155c0,0,8,81,8,129v29c0,0,0,17,12,32c0,0,13,15,28,15c0,0,54,0,54,-44V968c0,0,0,-87,18,-188c0,0,17,-100,52,-240c0,0,27,-112,42,-196c0,0,6,68,29,245c0,0,24,174,36,299c0,0,11,126,11,235c0,0,0,36,12,50c0,0,12,15,44,15c0,0,18,0,32,-13c0,0,15,-12,15,-29c0,0,0,-20,-16,-35c0,0,0,-111,-17,-259c0,0,-17,-147,-40,-280c0,0,-25,-132,-42,-280c0,0,-17,-148,-17,-260c0,0,0,-24,-12,-37c0,0,-12,-15,-33,-15c0,0,-18,0,-40,61c0,0,-32,97,-72,348c0,0,-14,84,-27,177L346,666c0,0,-21,-154,-31,-234c0,0,-9,-81,-17,-190c0,0,-10,-116,-10,-221c0,0,0,-17,-14,-29c0,0,-14,-13,-30,-13Z"
id="f0_5t"
transform="scale(0.001,-0.001)"/>

<path d="M179,-8c0,0,-19,0,-29,1c0,0,-10,1,-22,6c0,0,-25,8,-25,42V929c0,0,0,24,-10,77c0,0,-11,54,-11,79v5c0,0,26,42,38,54c0,0,19,0,57,6c0,0,38,7,56,7c0,0,25,0,48,-15c0,0,23,-14,23,-35c0,0,0,-45,-70,-45c0,0,-12,0,-21,0c0,0,-10,1,-23,1c0,0,-12,0,-16,-1c0,0,0,-36,6,-126c0,0,6,-89,6,-126c0,0,0,-24,-4,-89c0,0,-4,-65,-4,-85c0,0,2,0,23,5c0,0,29,8,49,8c0,0,18,0,31,-13c0,0,14,-12,14,-30c0,0,0,-19,-12,-33c0,0,-11,-14,-29,-14c0,0,-9,0,-17,1c0,0,-9,1,-21,1c0,0,-22,0,-31,-11V78l85,5c0,0,87,0,87,-40V37c0,0,-9,-19,-34,-31C323,6,299,-4,277,-6c0,0,-26,-2,-50,-2Z"
id="f0_1g"
transform="scale(0.001,-0.001)"/>

<path d="M302,-24c0,0,-43,0,-79,20c0,0,-36,19,-61,53c0,0,-22,31,-40,80c0,0,-18,50,-29,104c0,0,-10,47,-16,112c0,0,-6,65,-8,125c0,0,-2,54,-2,121c0,0,0,56,1,97c0,0,1,41,1,86c0,0,0,85,10,141c0,0,-4,24,-4,47c0,0,0,61,31,108c0,0,32,47,88,72c0,0,55,25,124,25c0,0,24,0,49,-9c0,0,25,-10,41,-27c0,0,16,-17,16,-38c0,0,0,-16,-12,-25c0,0,-12,-9,-30,-9c0,0,-16,0,-33,5c0,0,-17,5,-22,13v-1H307v4c0,0,-58,0,-94,-24c0,0,-15,-11,-26,-29c0,0,-11,-18,-18,-37c0,0,-5,-16,-8,-43c0,0,-4,-26,-4,-47c0,0,-1,-13,-1,-50c0,0,0,-17,2,-53c0,0,2,-34,2,-52c0,0,0,-18,-6,-53c0,0,-7,-36,-7,-53V602c0,0,0,-78,4,-163c0,0,1,-49,6,-87c0,0,5,-38,14,-88c0,0,8,-43,20,-75c0,0,13,-32,32,-63c0,0,36,-57,99,-57c0,0,26,0,65,28c0,0,40,27,58,27c0,0,21,0,44,-23c0,0,0,-28,-11,-50c0,0,-12,-23,-31,-37C447,14,428,1,403,-7c0,0,-26,-9,-51,-13c0,0,-27,-4,-50,-4Z"
id="f0_11"
transform="scale(0.001,-0.001)"/>

<path d="M163,709c0,0,27,26,52,59l24,132c0,0,1,14,1,21c0,0,0,45,-18,102c0,0,-9,28,-22,47c0,0,-14,18,-30,21c0,0,0,-37,-4,-153c0,0,-4,-103,-4,-158c0,0,0,-39,1,-71ZM374,-15c0,0,-29,0,-55,40v6c0,0,-5,79,-28,179c0,0,-24,100,-68,241c0,0,-40,128,-56,190V39c0,0,0,-25,-9,-37c0,0,-9,-11,-33,-11c0,0,-18,0,-28,12C97,3,86,15,86,33V45c0,0,0,183,3,448c0,0,3,266,3,448v188c0,0,0,18,8,25c0,0,7,7,32,7c0,0,37,0,70,-14c0,0,32,-15,55,-41c0,0,22,-26,38,-59c0,0,15,-33,23,-69c0,0,7,-34,7,-70c0,0,0,-34,-11,-86c0,0,-5,-27,-27,-85L269,693L254,653c0,0,0,-55,18,-139c0,0,17,-84,40,-155c0,0,20,-66,54,-167L411,57V53c0,0,0,-13,-1,-22c0,0,-1,-10,-3,-21c0,0,-6,-25,-33,-25Z"
id="f0_4l"
transform="scale(0.001,-0.001)"/>

<path d="M469,-21c0,0,-32,0,-125,313c0,0,-98,332,-184,676V467c0,0,0,-73,11,-218c0,0,10,-150,10,-218c0,0,0,-13,-17,-23C164,8,148,0,128,0C128,0,94,0,94,22c0,0,0,6,4,46c0,0,3,39,3,64c0,0,0,85,-9,257c0,0,-10,171,-10,217V800c0,0,0,54,5,141c0,0,6,86,6,140v10c0,0,0,76,33,76c0,0,21,0,52,-67c0,0,50,-110,127,-394c0,0,43,-161,105,-425L433,175l2,-7c0,0,0,108,3,266c0,0,3,158,3,266v453c0,0,9,38,50,38c0,0,41,0,41,-60v-9c0,0,-9,-19,-9,-45c0,0,0,-92,-5,-282c0,0,-5,-177,-5,-283V46c0,0,0,-24,-13,-46c0,0,-13,-21,-31,-21Z"
id="f0_39"
transform="scale(0.001,-0.001)"/>

<path d="M245,4c0,0,38,0,57,28c0,0,18,27,18,72c0,0,0,99,-20,201c0,0,-20,103,-63,254c0,0,-21,-70,-32,-185c0,0,-11,-116,-11,-232v-2c0,0,0,-37,19,-80V53c0,0,3,-18,11,-33c0,0,9,-16,21,-16ZM222,751c0,0,33,119,33,228c0,0,0,24,-5,60c0,0,-5,37,-14,64c0,0,-8,28,-19,28l-16,-1H185v1c0,0,-21,-23,-21,-77c0,0,0,-48,19,-145c0,0,19,-97,39,-158ZM244,-60c0,0,-33,0,-58,21c0,0,-26,21,-39,55c0,0,-24,62,-24,132c0,0,0,85,36,256c0,0,36,172,36,240c0,0,0,41,-15,96c0,0,-15,54,-38,107c0,0,-22,51,-37,109c0,0,-15,58,-15,104c0,0,0,60,27,99c0,0,28,40,78,40h33c0,0,47,-29,66,-58c0,0,12,-18,17,-31c0,0,5,-14,8,-36c0,0,4,-39,4,-95c0,0,0,-42,-4,-76c0,0,-3,-20,-4,-35c0,0,-2,-21,-13,-76c0,0,-10,-50,-16,-74l-8,-39l-9,-36c0,0,53,-123,87,-277c0,0,34,-154,34,-277c0,0,0,-6,1,-11V67L389,52c0,0,0,-3,0,-6V45C389,45,342,-60,244,-60Z"
id="f0_er"
transform="scale(0.001,-0.001)"/>

<path d="M359,-22c0,0,-20,0,-29,14c0,0,-10,13,-10,36c0,0,0,291,-13,538c0,0,-40,8,-51,8c0,0,-64,0,-90,-12c0,0,0,-80,12,-258c0,0,13,-177,13,-260c0,0,0,-16,-9,-28C182,16,172,4,158,4c0,0,-20,0,-36,70c0,0,-15,63,-24,173c0,0,-8,111,-15,262c0,0,-9,191,-11,482c0,0,-1,47,-1,135c0,0,0,28,26,28c0,0,13,0,30,-8c0,0,17,-8,24,-17c0,0,-6,-51,-6,-114c0,0,0,-60,6,-157c0,0,5,-99,5,-158c0,0,0,-15,-1,-28c0,0,-1,-13,-1,-29c0,0,0,-24,3,-39c0,0,36,1,74,5c0,0,42,4,75,6c0,0,0,94,-3,244c0,0,-3,150,-3,257v40c0,0,19,0,35,-7c0,0,15,-7,23,-17c0,0,7,-9,11,-26c0,0,4,-18,5,-33c0,0,0,-8,0,-34c0,0,0,-159,15,-503c0,0,15,-329,15,-504c0,0,0,-21,-13,-37c0,0,-14,-17,-32,-17Z"
id="f0_2a"
transform="scale(0.001,-0.001)"/>

<path d="M268,-24c0,0,-22,0,-36,16c0,0,-38,156,-109,596c0,0,-70,432,-93,548c0,0,9,30,42,30c0,0,25,0,64,-195c0,0,36,-182,77,-447L256,253c0,0,13,113,37,276c0,0,29,204,43,345c0,0,13,141,13,266c0,0,24,30,56,30l32,-17c0,0,-3,-18,-22,-206c0,0,-16,-153,-40,-344c0,0,-30,-248,-46,-355C329,248,303,70,286,10c0,0,-11,-34,-18,-34Z"
id="f0_5s"
transform="scale(0.001,-0.001)"/>

<path d="M336,-39c0,0,-41,0,-77,13c0,0,-35,14,-62,36c0,0,-24,21,-45,55c0,0,-21,33,-36,72c0,0,-12,31,-22,76c0,0,-9,45,-14,87c0,0,-5,35,-8,83c0,0,-3,48,-3,79c0,0,-1,19,-1,68v53c0,0,-1,25,-1,60c0,0,0,73,5,157c0,0,6,80,25,160c0,0,10,42,23,74c0,0,14,31,34,60c0,0,20,30,44,50c0,0,25,20,59,32c0,0,32,11,72,11c0,0,63,0,63,-43c0,0,0,-16,-12,-26c0,0,-11,-10,-28,-10c0,0,-5,0,-22,4c0,0,-16,3,-22,3c0,0,-28,0,-51,-17c0,0,-24,-18,-39,-51c0,0,-17,-38,-29,-76c0,0,-12,-38,-18,-86c0,0,-9,-61,-13,-99c0,0,-4,-39,-6,-86c0,0,-3,-70,-3,-145V513c0,0,-1,-21,-1,-53c0,0,0,-46,2,-79c0,0,1,-33,5,-74c0,0,5,-47,12,-82c0,0,8,-36,22,-71c0,0,13,-38,33,-61c0,0,19,-24,47,-39c0,0,29,-16,64,-16c0,0,68,0,112,64c0,0,0,51,-7,103c0,0,-6,52,-17,72l-24,-3c0,0,-21,-3,-36,-3c0,0,-52,0,-52,43c0,0,0,14,16,25c0,0,15,11,40,16c0,0,45,10,76,10c0,0,30,0,48,-23c0,0,17,-23,17,-59c0,0,0,-45,15,-136c0,0,15,-93,15,-136c0,0,0,-17,-10,-29c0,0,-11,-12,-27,-12c0,0,-39,0,-51,31V3c0,0,-6,-2,-33,-16c0,0,-26,-14,-43,-20c0,0,-18,-6,-36,-6Z"
id="f0_23"
transform="scale(0.001,-0.001)"/>

<path d="M162,-16c0,0,-20,0,-36,14c0,0,-16,14,-16,33c0,0,0,14,6,35c0,0,4,21,4,32c0,0,0,165,-15,522c0,0,-15,347,-15,521c0,0,0,13,10,22c0,0,11,9,27,9c0,0,18,0,32,-13c0,0,14,-13,14,-31c0,0,0,-83,8,-275c0,0,8,-175,8,-275l1,-19c0,0,1,-8,1,-18c0,0,0,-9,-1,-11v-7c0,0,6,-142,6,-398V86H313c0,0,32,-23,32,-46c0,0,0,-17,-11,-30c0,0,-11,-12,-27,-12c0,0,-8,0,-16,2l-8,2C283,2,272,0,254,0L230,1c0,0,-11,0,-25,0c0,0,-16,-17,-43,-17Z"
id="f0_2z"
transform="scale(0.001,-0.001)"/>

<path d="M357,-27c0,0,-46,0,-84,21c0,0,-38,20,-66,60c0,0,-29,42,-50,92c0,0,-20,50,-33,115c0,0,-14,72,-23,136c0,0,-8,65,-13,142c0,0,-7,134,-7,293c0,0,0,72,0,126c0,0,1,54,1,112c0,0,-11,13,-11,32c0,0,0,18,13,33c0,0,13,14,31,14c0,0,55,0,55,-109c0,0,0,-96,8,-265c0,0,6,-177,6,-266c0,0,8,-19,15,-79c0,0,7,-59,7,-99c0,0,0,-33,11,-83c0,0,11,-49,30,-100c0,0,20,-53,53,-87c0,0,32,-35,67,-35c0,0,22,0,36,14c0,0,14,14,19,40c0,0,5,25,7,42c0,0,1,17,1,41V462c0,0,0,52,-9,144c0,0,-10,91,-10,144v10l-1,45l-2,44c0,0,0,49,-5,130c0,0,-6,94,-6,132c0,0,0,18,18,30c0,0,18,12,39,12l38,-36v-26c0,0,0,-17,-6,-45c0,0,-6,-34,-6,-48c0,0,0,-134,15,-384c0,0,13,-256,13,-399c0,0,0,-42,-3,-72c0,0,-3,-30,-11,-62c0,0,-9,-35,-25,-57c0,0,-16,-22,-44,-36c0,0,-30,-15,-68,-15Z"
id="f0_56"
transform="scale(0.001,-0.001)"/>

<path d="M161,-6c0,0,-27,0,-37,7L113,35c0,0,0,18,8,24c0,0,7,5,32,5c0,0,33,0,33,26c0,0,0,155,-23,446c0,0,-23,292,-23,440l2,27c0,0,0,12,0,29c0,0,0,71,-52,71H73c0,0,-8,-1,-19,-1c0,0,-43,0,-43,33c0,0,0,40,123,40c0,0,64,0,79,-25c0,0,-9,-41,-9,-65c0,0,0,-50,12,-140c0,0,11,-92,11,-140c0,0,0,-126,16,-361c0,0,17,-237,17,-363V72c0,0,4,0,14,1c0,0,10,2,24,2c0,0,6,1,18,1v1c0,0,64,0,64,-38c0,0,0,-44,-173,-44H182c0,0,-8,-1,-21,-1Z"
id="f0_ek"
transform="scale(0.001,-0.001)"/>

<path d="M468,121c23,13,23,52,23,52c0,7,-6,20,-6,20c-8,6,-11,9,-11,9c-44,26,-87,58,-87,58l71,-69l6,-40c3,-23,4,-30,4,-30ZM739,623l-63,63c-3,-2,-8,-2,-8,-2l-29,74C595,747,592,707,592,707c11,-7,27,-13,27,-13c68,-37,120,-71,120,-71Zm310,193l3,3c-2,1,-3,1,-3,1v-4ZM476,-297c207,0,342,125,342,125C952,-47,952,159,952,159C952,368,828,496,828,496C766,561,598,652,598,652C474,720,474,781,474,781c0,41,34,70,34,70c35,29,76,29,76,29c51,0,77,-50,77,-50l36,-92c269,58,351,82,352,82c0,173,-128,290,-128,290C794,1227,619,1227,619,1227C380,1227,234,1104,234,1104C88,981,56,745,56,745C74,589,198,473,198,473c42,-40,108,-85,108,-85c57,-39,115,-77,115,-77C537,233,537,172,537,172C537,67,434,67,434,67H419c-6,0,-14,1,-14,1c-32,43,-45,88,-45,88c-5,15,-14,70,-14,70H156c-82,0,-140,2,-140,2C1,173,1,63,1,63C1,-155,138,-235,138,-235c109,-62,338,-62,338,-62Zm76,-118c-305,0,-420,115,-420,115l-40,40C-44,-167,-44,63,-44,63c0,120,17,177,17,177l43,33H92c-7,0,45,-1,45,-1H370C262,350,245,367,245,367l-6,6c-8,3,-9,7,-9,7l-38,37c-13,11,-16,14,-16,14C31,558,10,747,10,747c35,257,192,392,192,392c158,134,417,134,417,134c250,0,395,-203,395,-203l5,-5c3,-2,4,-3,4,-3l-2,1l16,-15c62,-58,101,-147,101,-147c39,-90,42,-178,42,-178L1043,680C836,628,751,614,751,614c63,-41,110,-85,110,-85c35,-40,38,-45,38,-45l31,-30h-2l6,-5C1070,309,1070,83,1070,83c0,-219,-150,-357,-150,-357l2,-2C774,-415,552,-415,552,-415Z"
id="f1_1j"
transform="scale(0.001,-0.001)"/>

<path d="M737,243c118,0,188,100,188,100c63,89,63,213,63,213c0,82,-34,142,-34,142c-44,20,-93,20,-93,20C752,718,663,605,663,605C574,493,574,382,574,382c0,-60,20,-101,20,-101c62,-38,143,-38,143,-38Zm0,-46c-125,0,-203,68,-203,68c-77,69,-77,193,-77,193c0,130,97,250,97,250C658,835,785,835,785,835c119,0,186,-82,186,-82c62,-77,62,-197,62,-197C1033,415,957,311,957,311C873,197,737,197,737,197Zm34,-494c293,0,496,215,496,215c201,210,201,506,201,506c0,375,-161,578,-161,578c-179,226,-542,226,-542,226C588,1228,406,1100,406,1100C236,981,126,808,126,808C1,614,1,427,1,427C1,85,216,-109,216,-109C424,-297,771,-297,771,-297Zm76,-118c-380,0,-609,230,-609,230l-20,19c-14,14,-31,26,-31,26C-44,66,-44,428,-44,428C-44,626,83,828,83,828c115,182,294,307,294,307c197,139,388,139,388,139c386,0,577,-241,577,-241l26,-26C1585,790,1585,348,1585,348c0,-314,-211,-535,-211,-535C1159,-415,847,-415,847,-415Z"
id="f1_1f"
transform="scale(0.001,-0.001)"/>

<path d="M627,-297c371,0,545,314,545,314c138,249,138,655,138,655c0,540,-100,541,-101,541l-155,-1c-206,-2,-246,-39,-246,-39c0,-58,20,-230,20,-230c11,-90,11,-152,11,-152C839,573,807,416,807,416C752,147,619,147,619,147C427,147,427,558,427,558c0,148,5,331,5,331c5,245,4,332,4,332l-68,7L28,1205c4,-33,-3,-87,-3,-87C14,1046,14,1030,14,1030V762C14,313,109,72,109,72C254,-297,627,-297,627,-297Zm76,-118c-251,0,-405,155,-405,155l-29,29C-31,-5,-31,762,-31,762v268c0,29,9,94,9,94c6,45,6,57,6,57c0,12,-10,67,-10,67l396,26l111,-12v-9l72,-72v-92c0,-101,-4,-304,-4,-304C544,582,544,481,544,481c0,-195,40,-284,40,-284c15,-4,35,-4,35,-4c95,0,144,232,144,232c30,145,30,366,30,366c0,68,-15,201,-15,201c-15,134,-15,201,-15,201c70,63,291,64,291,64l155,2h1c41,0,72,-51,72,-51l55,-53c90,-87,90,-559,90,-559C1427,177,1285,-78,1285,-78C1099,-415,703,-415,703,-415Z"
id="f1_1l"
transform="scale(0.001,-0.001)"/>

<path d="M552,683c78,30,87,38,87,38c-59,-4,-90,-6,-90,-6c3,-8,3,-17,3,-17V683ZM450,596c-5,59,-9,119,-9,119c-8,79,-20,113,-20,113c113,12,188,12,188,12c29,0,62,-31,62,-31c34,-30,34,-59,34,-59C705,690,602,652,602,652C470,602,450,596,450,596Zm698,435l-1,2c1,0,1,-2,1,-2ZM33,-297c218,43,264,52,264,52l193,37c0,42,-19,225,-19,225C459,139,459,203,459,203c0,23,2,41,2,41c221,83,299,112,299,112c393,150,393,452,393,452c0,208,-178,322,-178,322c-151,98,-369,98,-369,98C312,1228,51,1141,51,1141C51,958,25,510,25,510C1,89,1,-118,1,-118C1,-242,33,-297,33,-297ZM88,-419l-72,72c-5,0,-8,-2,-8,-2c-52,89,-52,231,-52,231c0,204,24,631,24,631c8,147,11,202,11,202l8,182c6,181,6,278,6,278c292,99,601,99,601,99c363,0,519,-222,519,-222l23,-21l6,-4C1270,910,1270,732,1270,732C1270,556,1142,421,1142,421C1034,307,850,240,850,240C804,223,788,218,788,218C656,169,577,139,577,139V128c0,-63,12,-182,12,-182c18,-181,18,-266,18,-266L239,-390C91,-419,88,-419,88,-419Z"
id="f1_1g"
transform="scale(0.001,-0.001)"/>

<path d="M201,85c0,0,56,37,99,103c0,0,43,66,66,147c0,0,42,151,42,302c0,0,0,84,-16,180c0,0,-16,94,-70,172c0,0,-26,37,-66,57c0,0,-41,20,-91,20v-1c0,0,0,-144,19,-416c0,0,17,-278,17,-418V85ZM169,-3c0,0,-30,0,-52,13c0,0,-22,14,-22,38c0,0,33,36,33,180c0,0,0,90,-14,253c0,0,-14,164,-14,252c0,0,0,26,2,82c0,0,2,56,2,85c0,0,0,42,-16,109c0,0,-17,70,-17,96c0,0,0,53,117,53h23c0,0,43,0,80,-14c0,0,36,-14,64,-37c0,0,25,-21,46,-54c0,0,21,-33,36,-69c0,0,13,-31,23,-74c0,0,10,-42,16,-78c0,0,4,-30,7,-70c0,0,3,-40,3,-66V577c0,0,-3,-6,-3,-14c0,0,0,-7,2,-18l1,-15c0,0,0,-49,-15,-116c0,0,-14,-67,-42,-139c0,0,-32,-80,-69,-140c0,0,-38,-60,-85,-98C275,37,224,-3,169,-3Z"
id="f0_17"
transform="scale(0.001,-0.001)"/>

<path d="M230,753c0,0,6,116,6,312c0,0,0,38,-11,56c0,0,-12,18,-43,18c0,0,-20,0,-36,-25c0,0,-16,-25,-24,-64c0,0,-14,-73,-14,-120c0,0,0,-33,5,-60c0,0,1,-12,7,-23c0,0,2,-3,8,-19c0,0,4,-8,12,-16c0,0,11,-10,14,-12c0,0,3,-4,15,-11c0,0,12,-8,19,-12c0,0,4,-3,20,-12l22,-12Zm1,-777L207,3c0,0,24,73,24,509l-1,99l-2,84c0,0,-56,12,-100,46c0,0,-44,33,-69,82c0,0,-25,48,-25,104c0,0,0,36,3,69c0,0,3,32,12,69c0,0,10,42,26,71c0,0,16,28,42,48c0,0,28,20,64,20c0,0,50,0,77,-15c0,0,28,-15,40,-46c0,0,12,-31,12,-84c0,0,0,-146,-9,-441c0,0,-9,-293,-9,-441c0,0,0,-20,-6,-54c0,0,-5,-34,-5,-56c0,0,0,-7,1,-14V37c0,0,0,-27,-13,-44c0,0,-12,-17,-38,-17Z"
id="f0_es"
transform="scale(0.001,-0.001)"/>

<path d="M185,67c0,0,50,8,87,37c0,0,37,29,57,73c0,0,19,45,19,98c0,0,0,70,-11,129c0,0,-12,59,-30,89c0,0,-17,28,-34,49c0,0,-17,20,-29,26l-12,6H178c0,0,7,-202,7,-507Zm-7,595c0,0,20,5,37,22c0,0,18,17,31,45c0,0,23,44,43,104c0,0,9,30,15,42v55c0,0,0,29,-16,60c0,0,-16,31,-41,50c0,0,-25,20,-53,20c0,0,-22,0,-22,-48c0,0,0,-74,3,-179c0,0,3,-104,3,-171ZM164,-12c0,0,-71,0,-71,37c0,0,0,49,3,188c0,0,4,140,4,188c0,0,0,117,-5,311c0,0,-5,193,-5,310v9c0,0,0,22,1,38c0,0,2,16,7,35c0,0,4,20,17,31c0,0,13,12,32,12c0,0,72,0,124,-32c0,0,52,-32,80,-89c0,0,27,-56,27,-130c0,0,0,-46,-17,-96c0,0,-16,-50,-45,-93c0,0,-28,-42,-62,-66c0,0,89,-60,131,-155c0,0,42,-94,42,-207c0,0,0,-55,-35,-132c0,0,-23,-46,-51,-80c0,0,-28,-33,-71,-56c0,0,-46,-23,-100,-23Z"
id="f0_z"
transform="scale(0.001,-0.001)"/>

<path d="M188,2C188,2,56,2,56,48c0,0,0,36,46,36c0,0,11,0,18,0l14,-2c0,0,12,0,17,8c0,0,6,8,6,28c0,0,0,124,-15,353c0,0,-14,229,-14,353l2,79l1,77c0,0,0,46,-3,85c0,0,-21,-6,-36,-6c0,0,-36,0,-36,36c0,0,0,18,22,32c0,0,23,14,59,20c0,0,61,12,108,12c0,0,18,0,31,-13c0,0,13,-12,13,-29c0,0,0,-17,-10,-29c0,0,-10,-12,-25,-12c0,0,-9,0,-15,0H227c0,0,-16,0,-23,-6c0,0,-6,-7,-6,-25c0,0,0,-155,18,-447c0,0,19,-291,19,-447V93c0,0,16,2,31,2c0,0,64,0,64,-54V32L292,6L251,4C251,4,215,2,188,2Z"
id="f0_2e"
transform="scale(0.001,-0.001)"/>

<path d="M131,-10c0,0,-23,0,-40,12C91,2,75,15,75,35v6c0,0,18,22,32,51c0,0,14,29,30,72c0,0,14,42,22,59c0,0,90,201,131,361c0,0,41,160,41,338c0,0,0,191,-73,197c0,0,-13,-7,-21,-28c0,0,-9,-21,-12,-45c0,0,-4,-24,-16,-40c0,0,-11,-16,-30,-16c0,0,-37,0,-37,47c0,0,0,33,10,64c0,0,11,32,33,57c0,0,23,25,55,25v1c0,0,49,0,87,-23c0,0,24,-14,49,-58c0,0,13,-24,22,-80c0,0,4,-31,6,-86V896c0,0,0,-104,-25,-226c0,0,-25,-122,-60,-216c0,0,-43,-116,-80,-206c0,0,-44,-109,-68,-184c0,0,93,16,180,16c0,0,32,-23,32,-43c0,0,0,-17,-20,-34c0,0,-38,0,-116,-6c0,0,-74,-7,-116,-7Z"
id="f0_el"
transform="scale(0.001,-0.001)"/>

<path d="M172,0c0,0,-44,0,-44,96c0,0,0,104,-7,341c0,0,-8,237,-18,429c0,0,-11,193,-21,208c0,0,0,23,9,39c0,0,10,17,25,27c0,0,12,8,34,13c0,0,22,5,40,6c0,0,11,0,40,0c0,0,34,0,49,-11c0,0,16,-11,16,-41c0,0,0,-16,-13,-24c0,0,-12,-9,-30,-9l-15,1c0,0,-9,1,-22,1c0,0,-43,0,-43,-17c0,0,0,-71,12,-208c0,0,10,-132,11,-203c0,0,2,1,34,9c0,0,32,8,51,8c0,0,18,0,30,-15c0,0,12,-14,12,-32c0,0,0,-22,-19,-31c0,0,-13,-6,-22,-9c0,0,-9,-4,-22,-5c0,0,-25,-4,-46,-5H195c0,0,0,-79,15,-249c0,0,15,-161,15,-249l-2,-5l-2,-5c0,0,3,-8,3,-18c0,0,0,-20,-14,-32C210,10,195,0,172,0Z"
id="f0_21"
transform="scale(0.001,-0.001)"/>

<path d="M607,428l-127,1c3,58,22,171,22,171c20,113,23,172,23,172C656,536,677,434,677,434c-30,-6,-70,-6,-70,-6ZM969,-297l391,209C1134,542,789,1228,789,1228L564,1218l-130,-5c-61,-1,-96,-1,-96,-1l-87,1C162,937,103,518,103,518L2,-184c87,-47,237,-72,237,-72l151,-24c22,40,44,218,44,218c22,158,43,181,43,181c15,20,113,32,113,32c122,16,129,17,129,17C767,57,838,-66,838,-66L969,-297Zm61,-131l-73,73l-5,-3L798,-88C760,-20,728,40,728,40C685,35,671,34,671,34C589,23,584,15,584,15C570,2,552,-144,552,-144C529,-323,489,-402,489,-402c-64,10,-96,15,-96,15l-61,9c-166,25,-299,95,-299,95l-64,66c-10,6,-16,7,-16,7L57,524c61,420,160,735,160,735l121,-2h31c67,0,194,7,194,7l253,12c2,-6,8,-15,8,-15l66,-66C1243,491,1487,-184,1487,-184L1030,-428Z"
id="f1_11"
transform="scale(0.001,-0.001)"/>

<path d="M1,-303c213,17,303,18,333,18c9,0,12,0,12,0l80,-3c79,-2,122,-2,122,-2c269,0,269,82,269,82c0,48,-15,144,-15,144C788,31,788,79,788,79v3c0,2,1,11,1,11v49c0,69,-70,71,-81,71q-1,0,-1,0H630c-76,-4,-113,-4,-113,-4c-130,0,-130,28,-130,28c0,180,21,478,21,478c21,321,21,478,21,478H360C198,1193,99,1173,99,1173L1,-303ZM33,-423l-71,73c-1,0,-4,-2,-4,-2h-5L54,1205l36,12c96,22,270,22,270,22H475v-9l71,-72c0,-34,-1,-96,-1,-96L542,938C537,833,534,793,534,793L525,635C511,390,505,255,505,255h52c6,0,23,2,23,2h43c3,1,6,1,6,1l76,3c2,0,5,0,7,0c82,0,111,-56,111,-56l56,-57c28,-27,28,-81,28,-81V34C905,21,905,14,905,14V3c0,-48,15,-143,15,-143c14,-96,14,-145,14,-145C934,-408,624,-408,624,-408l-203,6c-4,0,-9,0,-14,0c-51,0,-142,-6,-142,-6l-111,-8c-87,-6,-121,-7,-121,-7Z"
id="f1_1c"
transform="scale(0.001,-0.001)"/>

<path d="M430,229c43,29,100,96,100,96c96,115,96,173,96,173c0,75,-77,167,-77,167c-44,29,-88,29,-88,29H444C430,579,430,377,430,377V321c0,-9,0,-26,0,-26V229ZM313,169V371c0,15,0,24,0,24v58c0,245,20,358,20,358h52C487,811,579,706,579,706C672,601,672,498,672,498C672,420,569,294,569,294C466,169,389,169,389,169ZM259,-297c301,0,519,218,519,218C995,137,995,438,995,438c0,381,-240,590,-240,590C528,1228,143,1228,143,1228c-14,0,-61,-5,-61,-5c-17,-1,-30,-2,-40,-2c-14,0,-21,1,-21,1c4,-110,4,-232,4,-232C25,814,13,461,13,461C1,108,1,-67,1,-67c0,-41,3,-99,3,-99c4,-85,4,-101,4,-101c187,-30,251,-30,251,-30ZM-26,1268v0c0,0,0,1,0,1v-1ZM335,-415c-70,0,-291,37,-291,37l-68,70h-6c-5,2,-6,2,-6,2v18q0,-1,0,-1c-1,0,-2,35,-2,35l-2,43v23c-1,13,-1,21,-1,21v20c0,14,-2,40,-2,40c-1,27,-1,41,-1,41c0,175,12,527,12,527c12,353,12,529,12,529l-4,216c-1,48,-2,60,-2,62H25c11,-1,17,-1,17,-1c6,0,35,3,35,3c44,4,66,4,66,4c412,0,643,-212,643,-212c64,-64,86,-89,86,-89l24,-24C1113,732,1113,362,1113,362C1113,43,884,-185,884,-185C655,-415,335,-415,335,-415Z"
id="f1_14"
transform="scale(0.001,-0.001)"/>

</defs>
<path d="M870.7,267.3H464V37.7H870.7V267.3Z" class="g0"/>
<g fill="#FFFFFF" >
<use xlink:href="#f0_50" transform="matrix(17.6,0,0,17.6,468.6,114.8)"/>
<use xlink:href="#f0_3k" transform="matrix(17.6,0,0,17.6,475.6,114.8)"/>
<use xlink:href="#f0_37" transform="matrix(17.6,0,0,17.6,485.2,114.8)"/>
<use xlink:href="#f0_5" transform="matrix(17.6,0,0,17.6,497.3,114.8)"/>
<use xlink:href="#f0_50" transform="matrix(17.6,0,0,17.6,506.8,114.8)"/>
<use xlink:href="#f0_3k" transform="matrix(17.6,0,0,17.6,513.8,114.8)"/>
<use xlink:href="#f0_fb" transform="matrix(17.6,0,0,17.6,764.6,114.8)"/>
<use xlink:href="#f0_fb" transform="matrix(17.6,0,0,17.6,772.3,114.8)"/>
<use xlink:href="#f0_fb" transform="matrix(17.6,0,0,17.6,780.1,114.8)"/>
<use xlink:href="#f0_fb" transform="matrix(17.6,0,0,17.6,787.9,114.8)"/>
<use xlink:href="#f0_fb" transform="matrix(17.6,0,0,17.6,795.7,114.8)"/>
<use xlink:href="#f0_fb" transform="matrix(17.6,0,0,17.6,803.4,114.8)"/>
<use xlink:href="#f0_eq" transform="matrix(17.6,0,0,17.6,821.1,114.8)"/>
<use xlink:href="#f0_ej" transform="matrix(17.6,0,0,17.6,829.1,114.8)"/>
<use xlink:href="#f0_fh" transform="matrix(17.6,0,0,17.6,837.8,114.8)"/>
<use xlink:href="#f0_ft" transform="matrix(17.6,0,0,17.6,847.7,114.8)"/>
<use xlink:href="#f0_4r" transform="matrix(17.6,0,0,17.6,468.6,147.1)"/>
<use xlink:href="#f0_5t" transform="matrix(17.6,0,0,17.6,476.8,147.1)"/>
<use xlink:href="#f0_1g" transform="matrix(17.6,0,0,17.6,490.1,147.1)"/>
<use xlink:href="#f0_1g" transform="matrix(17.6,0,0,17.6,497.6,147.1)"/>
<use xlink:href="#f0_50" transform="matrix(17.6,0,0,17.6,505.1,147.1)"/>
<use xlink:href="#f0_11" transform="matrix(17.6,0,0,17.6,517,147.1)"/>
<use xlink:href="#f0_3k" transform="matrix(17.6,0,0,17.6,526.1,147.1)"/>
<use xlink:href="#f0_4l" transform="matrix(17.6,0,0,17.6,535.6,147.1)"/>
<use xlink:href="#f0_39" transform="matrix(17.6,0,0,17.6,543.4,147.1)"/>
<use xlink:href="#f0_fb" transform="matrix(17.6,0,0,17.6,771.1,147.1)"/>
<use xlink:href="#f0_fb" transform="matrix(17.6,0,0,17.6,778.9,147.1)"/>
<use xlink:href="#f0_fb" transform="matrix(17.6,0,0,17.6,786.7,147.1)"/>
<use xlink:href="#f0_fb" transform="matrix(17.6,0,0,17.6,794.4,147.1)"/>
<use xlink:href="#f0_fb" transform="matrix(17.6,0,0,17.6,802.2,147.1)"/>
<use xlink:href="#f0_fb" transform="matrix(17.6,0,0,17.6,810,147.1)"/>
<use xlink:href="#f0_er" transform="matrix(17.6,0,0,17.6,822.7,147.1)"/>
<use xlink:href="#f0_ej" transform="matrix(17.6,0,0,17.6,831.1,147.1)"/>
<use xlink:href="#f0_fh" transform="matrix(17.6,0,0,17.6,839.8,147.1)"/>
<use xlink:href="#f0_ft" transform="matrix(17.6,0,0,17.6,849.7,147.1)"/>
<use xlink:href="#f0_37" transform="matrix(17.6,0,0,17.6,468.6,179.4)"/>
<use xlink:href="#f0_5" transform="matrix(17.6,0,0,17.6,480.7,179.4)"/>
<use xlink:href="#f0_39" transform="matrix(17.6,0,0,17.6,490.2,179.4)"/>
<use xlink:href="#f0_11" transform="matrix(17.6,0,0,17.6,501.2,179.4)"/>
<use xlink:href="#f0_2a" transform="matrix(17.6,0,0,17.6,510.3,179.4)"/>
<use xlink:href="#f0_3k" transform="matrix(17.6,0,0,17.6,519.2,179.4)"/>
<use xlink:href="#f0_5t" transform="matrix(17.6,0,0,17.6,528.7,179.4)"/>
<use xlink:href="#f0_fb" transform="matrix(17.6,0,0,17.6,773.4,179.4)"/>
<use xlink:href="#f0_fb" transform="matrix(17.6,0,0,17.6,781.2,179.4)"/>
<use xlink:href="#f0_fb" transform="matrix(17.6,0,0,17.6,788.9,179.4)"/>
<use xlink:href="#f0_fb" transform="matrix(17.6,0,0,17.6,796.7,179.4)"/>
<use xlink:href="#f0_fb" transform="matrix(17.6,0,0,17.6,804.5,179.4)"/>
<use xlink:href="#f0_er" transform="matrix(17.6,0,0,17.6,822.1,179.4)"/>
<use xlink:href="#f0_ej" transform="matrix(17.6,0,0,17.6,830.6,179.4)"/>
<use xlink:href="#f0_fh" transform="matrix(17.6,0,0,17.6,839.2,179.4)"/>
<use xlink:href="#f0_ft" transform="matrix(17.6,0,0,17.6,849.1,179.4)"/>
<use xlink:href="#f0_5s" transform="matrix(17.6,0,0,17.6,468.6,211.7)"/>
<use xlink:href="#f0_1g" transform="matrix(17.6,0,0,17.6,478,211.7)"/>
<use xlink:href="#f0_23" transform="matrix(17.6,0,0,17.6,485.4,211.7)"/>
<use xlink:href="#f0_11" transform="matrix(17.6,0,0,17.6,500.4,211.7)"/>
<use xlink:href="#f0_2z" transform="matrix(17.6,0,0,17.6,509.4,211.7)"/>
<use xlink:href="#f0_1g" transform="matrix(17.6,0,0,17.6,516.1,211.7)"/>
<use xlink:href="#f0_5" transform="matrix(17.6,0,0,17.6,523.6,211.7)"/>
<use xlink:href="#f0_4l" transform="matrix(17.6,0,0,17.6,533,211.7)"/>
<use xlink:href="#f0_fb" transform="matrix(17.6,0,0,17.6,767.3,211.7)"/>
<use xlink:href="#f0_fb" transform="matrix(17.6,0,0,17.6,775,211.7)"/>
<use xlink:href="#f0_fb" transform="matrix(17.6,0,0,17.6,782.8,211.7)"/>
<use xlink:href="#f0_fb" transform="matrix(17.6,0,0,17.6,790.6,211.7)"/>
<use xlink:href="#f0_fb" transform="matrix(17.6,0,0,17.6,798.4,211.7)"/>
<use xlink:href="#f0_fb" transform="matrix(17.6,0,0,17.6,806.1,211.7)"/>
<use xlink:href="#f0_er" transform="matrix(17.6,0,0,17.6,818.8,211.7)"/>
<use xlink:href="#f0_ej" transform="matrix(17.6,0,0,17.6,827.3,211.7)"/>
<use xlink:href="#f0_fh" transform="matrix(17.6,0,0,17.6,835.9,211.7)"/>
<use xlink:href="#f0_ft" transform="matrix(17.6,0,0,17.6,845.8,211.7)"/>
<use xlink:href="#f0_37" transform="matrix(17.6,0,0,17.6,468.6,244)"/>
<use xlink:href="#f0_56" transform="matrix(17.6,0,0,17.6,480.7,244)"/>
<use xlink:href="#f0_4r" transform="matrix(17.6,0,0,17.6,491.5,244)"/>
<use xlink:href="#f0_2a" transform="matrix(17.6,0,0,17.6,499.8,244)"/>
<use xlink:href="#f0_4l" transform="matrix(17.6,0,0,17.6,508.7,244)"/>
<use xlink:href="#f0_3k" transform="matrix(17.6,0,0,17.6,516.4,244)"/>
<use xlink:href="#f0_3k" transform="matrix(17.6,0,0,17.6,526,244)"/>
<use xlink:href="#f0_37" transform="matrix(17.6,0,0,17.6,535.5,244)"/>
<use xlink:href="#f0_fb" transform="matrix(17.6,0,0,17.6,769.2,244)"/>
<use xlink:href="#f0_fb" transform="matrix(17.6,0,0,17.6,777,244)"/>
<use xlink:href="#f0_fb" transform="matrix(17.6,0,0,17.6,784.8,244)"/>
<use xlink:href="#f0_fb" transform="matrix(17.6,0,0,17.6,792.6,244)"/>
<use xlink:href="#f0_fb" transform="matrix(17.6,0,0,17.6,800.3,244)"/>
<use xlink:href="#f0_ek" transform="matrix(17.6,0,0,17.6,813,244)"/>
<use xlink:href="#f0_ej" transform="matrix(17.6,0,0,17.6,820.3,244)"/>
<use xlink:href="#f0_ej" transform="matrix(17.6,0,0,17.6,828.9,244)"/>
<use xlink:href="#f0_fh" transform="matrix(17.6,0,0,17.6,837.5,244)"/>
<use xlink:href="#f0_ft" transform="matrix(17.6,0,0,17.6,847.4,244)"/>
<use xlink:href="#f1_1j" transform="matrix(17.6,0,0,17.6,603.8,66.1)"/>
<use xlink:href="#f1_1f" transform="matrix(17.6,0,0,17.6,626,66.1)"/>
<use xlink:href="#f1_1l" transform="matrix(17.6,0,0,17.6,655.6,66.1)"/>
<use xlink:href="#f1_1g" transform="matrix(17.6,0,0,17.6,682.5,66.1)"/>
<use xlink:href="#f1_1j" transform="matrix(17.6,0,0,17.6,705.7,66.1)"/>
</g>
<image clip-path="url(#c0)" preserveAspectRatio="none" x="561" y="113" width="223" height="142" style="mix-blend-mode: overlay;" xlink:href="img/1.png"/>
<path d="M444.4,259.7H39.2V38.6H444.4V259.7Z" class="g1"/>
<g fill="#FFFFFF" >
<use xlink:href="#f0_23" transform="matrix(17.5,0,0,17.5,46.7,116.4)"/>
<use xlink:href="#f0_4l" transform="matrix(17.5,0,0,17.5,56.7,116.4)"/>
<use xlink:href="#f0_1g" transform="matrix(17.5,0,0,17.5,64.4,116.4)"/>
<use xlink:href="#f0_1g" transform="matrix(17.5,0,0,17.5,71.9,116.4)"/>
<use xlink:href="#f0_39" transform="matrix(17.5,0,0,17.5,79.3,116.4)"/>
<use xlink:href="#f0_4r" transform="matrix(17.5,0,0,17.5,95.3,116.4)"/>
<use xlink:href="#f0_5" transform="matrix(17.5,0,0,17.5,103.5,116.4)"/>
<use xlink:href="#f0_2z" transform="matrix(17.5,0,0,17.5,112.9,116.4)"/>
<use xlink:href="#f0_5" transform="matrix(17.5,0,0,17.5,119.6,116.4)"/>
<use xlink:href="#f0_17" transform="matrix(17.5,0,0,17.5,129,116.4)"/>
<use xlink:href="#f0_fb" transform="matrix(17.5,0,0,17.5,345.1,116.4)"/>
<use xlink:href="#f0_fb" transform="matrix(17.5,0,0,17.5,352.8,116.4)"/>
<use xlink:href="#f0_fb" transform="matrix(17.5,0,0,17.5,360.6,116.4)"/>
<use xlink:href="#f0_fb" transform="matrix(17.5,0,0,17.5,368.3,116.4)"/>
<use xlink:href="#f0_fb" transform="matrix(17.5,0,0,17.5,376.1,116.4)"/>
<use xlink:href="#f0_fb" transform="matrix(17.5,0,0,17.5,383.8,116.4)"/>
<use xlink:href="#f0_es" transform="matrix(17.5,0,0,17.5,401.4,116.4)"/>
<use xlink:href="#f0_ej" transform="matrix(17.5,0,0,17.5,408.9,116.4)"/>
<use xlink:href="#f0_fh" transform="matrix(17.5,0,0,17.5,417.5,116.4)"/>
<use xlink:href="#f0_ft" transform="matrix(17.5,0,0,17.5,427.4,116.4)"/>
<use xlink:href="#f0_5s" transform="matrix(17.5,0,0,17.5,46.7,148.5)"/>
<use xlink:href="#f0_1g" transform="matrix(17.5,0,0,17.5,56.1,148.5)"/>
<use xlink:href="#f0_23" transform="matrix(17.5,0,0,17.5,63.6,148.5)"/>
<use xlink:href="#f0_1g" transform="matrix(17.5,0,0,17.5,73.5,148.5)"/>
<use xlink:href="#f0_50" transform="matrix(17.5,0,0,17.5,81,148.5)"/>
<use xlink:href="#f0_5" transform="matrix(17.5,0,0,17.5,88,148.5)"/>
<use xlink:href="#f0_z" transform="matrix(17.5,0,0,17.5,97.4,148.5)"/>
<use xlink:href="#f0_2z" transform="matrix(17.5,0,0,17.5,105.8,148.5)"/>
<use xlink:href="#f0_1g" transform="matrix(17.5,0,0,17.5,112.5,148.5)"/>
<use xlink:href="#f0_4r" transform="matrix(17.5,0,0,17.5,120,148.5)"/>
<use xlink:href="#f0_4r" transform="matrix(17.5,0,0,17.5,133.1,148.5)"/>
<use xlink:href="#f0_5" transform="matrix(17.5,0,0,17.5,141.3,148.5)"/>
<use xlink:href="#f0_2z" transform="matrix(17.5,0,0,17.5,150.7,148.5)"/>
<use xlink:href="#f0_5" transform="matrix(17.5,0,0,17.5,157.4,148.5)"/>
<use xlink:href="#f0_17" transform="matrix(17.5,0,0,17.5,166.8,148.5)"/>
<use xlink:href="#f0_fb" transform="matrix(17.5,0,0,17.5,343.7,148.5)"/>
<use xlink:href="#f0_fb" transform="matrix(17.5,0,0,17.5,351.4,148.5)"/>
<use xlink:href="#f0_fb" transform="matrix(17.5,0,0,17.5,359.2,148.5)"/>
<use xlink:href="#f0_fb" transform="matrix(17.5,0,0,17.5,366.9,148.5)"/>
<use xlink:href="#f0_fb" transform="matrix(17.5,0,0,17.5,374.7,148.5)"/>
<use xlink:href="#f0_ek" transform="matrix(17.5,0,0,17.5,392.2,148.5)"/>
<use xlink:href="#f0_ej" transform="matrix(17.5,0,0,17.5,399.4,148.5)"/>
<use xlink:href="#f0_ej" transform="matrix(17.5,0,0,17.5,408,148.5)"/>
<use xlink:href="#f0_fh" transform="matrix(17.5,0,0,17.5,416.6,148.5)"/>
<use xlink:href="#f0_ft" transform="matrix(17.5,0,0,17.5,426.5,148.5)"/>
<use xlink:href="#f0_50" transform="matrix(17.5,0,0,17.5,46.7,180.7)"/>
<use xlink:href="#f0_5" transform="matrix(17.5,0,0,17.5,53.8,180.7)"/>
<use xlink:href="#f0_39" transform="matrix(17.5,0,0,17.5,63.1,180.7)"/>
<use xlink:href="#f0_17" transform="matrix(17.5,0,0,17.5,74.2,180.7)"/>
<use xlink:href="#f0_3k" transform="matrix(17.5,0,0,17.5,84.3,180.7)"/>
<use xlink:href="#f0_3k" transform="matrix(17.5,0,0,17.5,93.9,180.7)"/>
<use xlink:href="#f0_4l" transform="matrix(17.5,0,0,17.5,103.4,180.7)"/>
<use xlink:href="#f0_4r" transform="matrix(17.5,0,0,17.5,116,180.7)"/>
<use xlink:href="#f0_5" transform="matrix(17.5,0,0,17.5,124.3,180.7)"/>
<use xlink:href="#f0_2z" transform="matrix(17.5,0,0,17.5,133.6,180.7)"/>
<use xlink:href="#f0_5" transform="matrix(17.5,0,0,17.5,140.3,180.7)"/>
<use xlink:href="#f0_17" transform="matrix(17.5,0,0,17.5,149.7,180.7)"/>
<use xlink:href="#f0_fb" transform="matrix(17.5,0,0,17.5,341.3,180.7)"/>
<use xlink:href="#f0_fb" transform="matrix(17.5,0,0,17.5,349.1,180.7)"/>
<use xlink:href="#f0_fb" transform="matrix(17.5,0,0,17.5,356.8,180.7)"/>
<use xlink:href="#f0_fb" transform="matrix(17.5,0,0,17.5,364.6,180.7)"/>
<use xlink:href="#f0_fb" transform="matrix(17.5,0,0,17.5,372.3,180.7)"/>
<use xlink:href="#f0_fb" transform="matrix(17.5,0,0,17.5,380.1,180.7)"/>
<use xlink:href="#f0_ek" transform="matrix(17.5,0,0,17.5,392.7,180.7)"/>
<use xlink:href="#f0_ej" transform="matrix(17.5,0,0,17.5,399.9,180.7)"/>
<use xlink:href="#f0_ej" transform="matrix(17.5,0,0,17.5,408.5,180.7)"/>
<use xlink:href="#f0_fh" transform="matrix(17.5,0,0,17.5,417.1,180.7)"/>
<use xlink:href="#f0_ft" transform="matrix(17.5,0,0,17.5,427,180.7)"/>
<use xlink:href="#f0_4l" transform="matrix(17.5,0,0,17.5,46.7,212.9)"/>
<use xlink:href="#f0_56" transform="matrix(17.5,0,0,17.5,54.5,212.9)"/>
<use xlink:href="#f0_4r" transform="matrix(17.5,0,0,17.5,65.2,212.9)"/>
<use xlink:href="#f0_4r" transform="matrix(17.5,0,0,17.5,72.8,212.9)"/>
<use xlink:href="#f0_2e" transform="matrix(17.5,0,0,17.5,81,212.9)"/>
<use xlink:href="#f0_5" transform="matrix(17.5,0,0,17.5,87.9,212.9)"/>
<use xlink:href="#f0_39" transform="matrix(17.5,0,0,17.5,97.3,212.9)"/>
<use xlink:href="#f0_4r" transform="matrix(17.5,0,0,17.5,113.3,212.9)"/>
<use xlink:href="#f0_5" transform="matrix(17.5,0,0,17.5,121.5,212.9)"/>
<use xlink:href="#f0_2z" transform="matrix(17.5,0,0,17.5,130.9,212.9)"/>
<use xlink:href="#f0_5" transform="matrix(17.5,0,0,17.5,137.6,212.9)"/>
<use xlink:href="#f0_17" transform="matrix(17.5,0,0,17.5,146.9,212.9)"/>
<use xlink:href="#f0_fb" transform="matrix(17.5,0,0,17.5,348.4,212.9)"/>
<use xlink:href="#f0_fb" transform="matrix(17.5,0,0,17.5,356.1,212.9)"/>
<use xlink:href="#f0_fb" transform="matrix(17.5,0,0,17.5,363.9,212.9)"/>
<use xlink:href="#f0_fb" transform="matrix(17.5,0,0,17.5,371.6,212.9)"/>
<use xlink:href="#f0_fb" transform="matrix(17.5,0,0,17.5,379.3,212.9)"/>
<use xlink:href="#f0_ek" transform="matrix(17.5,0,0,17.5,392,212.9)"/>
<use xlink:href="#f0_el" transform="matrix(17.5,0,0,17.5,399.2,212.9)"/>
<use xlink:href="#f0_ej" transform="matrix(17.5,0,0,17.5,408.4,212.9)"/>
<use xlink:href="#f0_fh" transform="matrix(17.5,0,0,17.5,417,212.9)"/>
<use xlink:href="#f0_ft" transform="matrix(17.5,0,0,17.5,426.9,212.9)"/>
<use xlink:href="#f0_21" transform="matrix(17.5,0,0,17.5,46.7,245)"/>
<use xlink:href="#f0_4l" transform="matrix(17.5,0,0,17.5,53.8,245)"/>
<use xlink:href="#f0_56" transform="matrix(17.5,0,0,17.5,61.6,245)"/>
<use xlink:href="#f0_2e" transform="matrix(17.5,0,0,17.5,72.3,245)"/>
<use xlink:href="#f0_50" transform="matrix(17.5,0,0,17.5,79.2,245)"/>
<use xlink:href="#f0_4r" transform="matrix(17.5,0,0,17.5,91.1,245)"/>
<use xlink:href="#f0_5" transform="matrix(17.5,0,0,17.5,99.4,245)"/>
<use xlink:href="#f0_2z" transform="matrix(17.5,0,0,17.5,108.7,245)"/>
<use xlink:href="#f0_5" transform="matrix(17.5,0,0,17.5,115.4,245)"/>
<use xlink:href="#f0_17" transform="matrix(17.5,0,0,17.5,124.8,245)"/>
<use xlink:href="#f0_fb" transform="matrix(17.5,0,0,17.5,345.9,245)"/>
<use xlink:href="#f0_fb" transform="matrix(17.5,0,0,17.5,353.6,245)"/>
<use xlink:href="#f0_fb" transform="matrix(17.5,0,0,17.5,361.4,245)"/>
<use xlink:href="#f0_fb" transform="matrix(17.5,0,0,17.5,369.1,245)"/>
<use xlink:href="#f0_fb" transform="matrix(17.5,0,0,17.5,376.8,245)"/>
<use xlink:href="#f0_ek" transform="matrix(17.5,0,0,17.5,394.4,245)"/>
<use xlink:href="#f0_el" transform="matrix(17.5,0,0,17.5,401.6,245)"/>
<use xlink:href="#f0_ej" transform="matrix(17.5,0,0,17.5,410.8,245)"/>
<use xlink:href="#f0_fh" transform="matrix(17.5,0,0,17.5,419.4,245)"/>
<use xlink:href="#f0_ft" transform="matrix(17.5,0,0,17.5,429.3,245)"/>
<use xlink:href="#f1_1j" transform="matrix(17.5,0,0,17.5,174.3,67.8)"/>
<use xlink:href="#f1_11" transform="matrix(17.5,0,0,17.5,196.4,67.8)"/>
<use xlink:href="#f1_1c" transform="matrix(17.5,0,0,17.5,222.6,67.8)"/>
<use xlink:href="#f1_11" transform="matrix(17.5,0,0,17.5,240.4,67.8)"/>
<use xlink:href="#f1_14" transform="matrix(17.5,0,0,17.5,266.6,67.8)"/>
<use xlink:href="#f1_1j" transform="matrix(17.5,0,0,17.5,287.7,67.8)"/>
</g>
<image clip-path="url(#c0)" preserveAspectRatio="none" x="141" y="90" width="210" height="157" opacity="0.630005" style="mix-blend-mode: overlay;" xlink:href="img/2.png"/>
</svg>